<svg class="illustration" width="1155" height="700" viewBox="0 0 1155 700" fill="none" xmlns="http://www.w3.org/2000/svg">
<rect x="278.216" y="150" width="618.091" height="396.834" rx="9.28246" fill="#D9D9D9"/>
<rect x="446.658" y="394.852" width="102.777" height="76.8066" rx="4.61984" fill="black" fill-opacity="0.37"/>
<rect x="446.657" y="476.459" width="102.777" height="6.00052" rx="3.00026" fill="black" fill-opacity="0.37"/>
<rect x="446.657" y="487.26" width="65.2028" height="6.00052" rx="3.00026" fill="black" fill-opacity="0.37"/>
<rect x="576.559" y="394.852" width="102.777" height="76.8066" rx="4.61984" fill="black" fill-opacity="0.37"/>
<rect x="576.558" y="476.459" width="102.777" height="6.00052" rx="3.00026" fill="black" fill-opacity="0.37"/>
<rect x="576.558" y="487.26" width="65.2028" height="6.00052" rx="3.00026" fill="black" fill-opacity="0.37"/>
<rect x="706.456" y="394.852" width="102.777" height="76.8066" rx="4.61984" fill="black" fill-opacity="0.37"/>
<rect x="706.455" y="476.459" width="102.777" height="6.00052" rx="3.00026" fill="black" fill-opacity="0.37"/>
<rect x="706.455" y="487.26" width="65.2028" height="6.00052" rx="3.00026" fill="black" fill-opacity="0.37"/>
<rect x="314.438" y="394.852" width="111.717" height="7.34662" rx="3.67331" fill="black" fill-opacity="0.37"/>
<rect x="314.438" y="412.963" width="111.717" height="7.34662" rx="3.67331" fill="black" fill-opacity="0.37"/>
<rect x="314.433" y="431.074" width="111.717" height="7.34662" rx="3.67331" fill="black" fill-opacity="0.37"/>
<rect x="314.438" y="449.185" width="111.717" height="7.34662" rx="3.67331" fill="black" fill-opacity="0.37"/>
<rect x="366.84" y="295.512" width="427.991" height="27.9024" rx="1.9891" fill="white" fill-opacity="0.37"/>
<circle cx="321.753" cy="179.263" r="6.42358" fill="#404040"/>
<circle cx="347.449" cy="179.263" r="6.42358" fill="white"/>
<circle cx="373.141" cy="179.263" r="6.42358" fill="#404040"/>
<path d="M598.977 252.968C598.977 246.929 603.873 242.033 609.912 242.033H706.501C712.54 242.033 717.435 246.929 717.435 252.968V298.528C717.435 304.567 712.54 309.463 706.501 309.463H609.912C603.873 309.463 598.977 304.567 598.977 298.528V252.968Z" fill="white"/>
<path fill-rule="evenodd" clip-rule="evenodd" d="M419.535 208.789C419.535 206.821 421.131 205.226 423.099 205.226H473.512C475.481 205.226 477.076 206.821 477.076 208.789V257.924C477.076 259.892 475.481 261.488 473.512 261.488H423.099C421.131 261.488 419.535 259.892 419.535 257.924V208.789ZM759.932 320.077C759.932 318.241 761.42 316.753 763.256 316.753H881.075C883.115 316.753 884.768 318.406 884.768 320.446V547.709L950.375 547.709C950.717 547.709 950.994 547.986 950.994 548.328C950.994 548.67 950.717 548.947 950.375 548.947L884.768 548.947V550H759.932V548.947L217.585 548.947C217.243 548.947 216.966 548.67 216.966 548.328C216.966 547.986 217.243 547.709 217.585 547.709L759.932 547.709V320.077ZM665.401 254.79C663.999 254.79 662.862 255.927 662.862 257.33V292.344C662.862 293.747 663.999 294.884 665.401 294.884H701.327C702.73 294.884 703.867 293.747 703.867 292.344V257.33C703.867 255.927 702.73 254.79 701.327 254.79H665.401ZM609.912 244.186H706.501C711.351 244.186 715.283 248.118 715.283 252.968V298.528C715.283 303.378 711.351 307.31 706.501 307.31H609.912C605.062 307.31 601.13 303.378 601.13 298.528V252.968C601.13 248.118 605.062 244.186 609.912 244.186ZM598.977 252.968C598.977 246.929 603.873 242.033 609.912 242.033H706.501C712.54 242.033 717.435 246.929 717.435 252.968V298.528C717.435 304.567 712.54 309.463 706.501 309.463H609.912C603.873 309.463 598.977 304.567 598.977 298.528V252.968Z" fill="#ffffff"/>
<rect x="775.253" y="372.589" width="96.5776" height="6.63897" fill="black" fill-opacity="0.14"/>
<rect x="787.758" y="404.094" width="68.9886" height="7.49373" fill="black" fill-opacity="0.14"/>
<rect x="787.758" y="415.271" width="68.9886" height="7.49373" fill="black" fill-opacity="0.14"/>
<rect x="770.257" y="452.785" width="103.992" height="7.49373" fill="black" fill-opacity="0.14"/>
<rect x="722.489" y="469.423" width="196.347" height="60.7757" rx="3.05182" fill="black" fill-opacity="0.24"/>
<path d="M759.93 323.114C759.93 323.114 759.991 318.665 763.11 317.945C768.279 316.753 777.998 316.753 777.998 316.753L812.493 550H759.93V323.114Z" fill="black" fill-opacity="0.1"/>
<path d="M840.078 206.044C840.078 219.128 829.471 229.735 816.386 229.735C803.302 229.735 792.695 219.128 792.695 206.044C792.695 192.959 803.302 182.352 816.386 182.352C829.471 182.352 840.078 192.959 840.078 206.044Z" fill="white"/>
<path fill-rule="evenodd" clip-rule="evenodd" d="M831.069 196.874C831.473 197.251 831.495 197.884 831.118 198.287L813.984 216.651L813.262 217.426L812.53 216.66L805.31 209.104C804.929 208.704 804.943 208.071 805.343 207.69C805.742 207.308 806.375 207.323 806.756 207.722L813.245 214.513L829.656 196.923C830.033 196.519 830.665 196.497 831.069 196.874ZM615.356 254.789C613.954 254.789 612.817 255.926 612.817 257.328V292.343C612.817 293.746 613.954 294.882 615.356 294.882H651.282C652.684 294.882 653.821 293.746 653.821 292.343V257.328C653.821 255.926 652.684 254.789 651.282 254.789H615.356ZM404.937 275.748C401.68 275.748 399.039 278.389 399.039 281.646V362.97C399.039 366.227 401.68 368.868 404.937 368.868H488.377C491.634 368.868 494.275 366.227 494.275 362.97V281.646C494.275 278.389 491.634 275.748 488.377 275.748H404.937ZM230.986 520.171C236.907 542.538 270.541 547.801 282.508 547.503L282.513 547.515L282.551 547.502C282.632 547.5 282.711 547.498 282.79 547.495C282.846 547.493 282.902 547.491 282.957 547.489L282.998 547.351C348.323 524.953 317.16 408.955 317.16 421.584C317.16 431.712 306.944 446.681 301.835 452.9C297.844 457.786 294.454 462.724 291.591 467.653C278.41 407.186 226.868 365.433 231.652 376.914C236.983 389.707 247.677 426.534 239.647 456.87C236.685 468.062 236.636 478.983 238.547 489.121C226.232 483.953 213.889 480.553 205 478.86C217.26 491.12 230.319 514.84 230.986 520.171Z" fill="#4485f3"/>
<rect x="424.43" y="301.147" width="27.5126" height="29.629" fill="white"/>
<circle cx="457.232" cy="331.834" r="15.8727" fill="#FFF5DB"/>
<rect x="434.88" y="220.57" width="16.6229" height="17.9016" rx="3.05182" fill="black" fill-opacity="0.24"/>
<circle cx="454.696" cy="239.111" r="9.59014" fill="white" fill-opacity="0.6"/>
<rect x="623.744" y="265.725" width="11.8458" height="12.757" fill="white"/>
<circle cx="637.87" cy="278.937" r="6.83412" fill="#FFF5DB"/>
<rect x="673.796" y="265.725" width="11.8458" height="12.757" rx="3.05182" fill="black" fill-opacity="0.24"/>
<circle cx="687.917" cy="278.937" r="6.83412" fill="white" fill-opacity="0.6"/>
<path d="M282.292 544.158C277.009 497.486 259.811 399.056 233.035 375.525C232.795 375.32 232.557 375.117 232.319 374.917C232.559 375.114 232.797 375.317 233.035 375.525C264.667 402.639 317.737 473.267 282.292 544.158Z" fill="black" fill-opacity="0.13"/>
<path d="M285.621 545.49C299.836 517.95 326.266 455.006 318.27 423.557C328.042 454.651 335.194 522.569 285.621 545.49Z" fill="black" fill-opacity="0.08"/>
<path d="M282.96 545.49C264.747 525.279 223.792 483.657 205.669 478.86C240.983 507.511 217.662 545.49 282.96 545.49Z" fill="black" fill-opacity="0.11"/>
<rect x="787.758" y="392.917" width="68.9886" height="7.49373" fill="black" fill-opacity="0.14"/>
<rect x="775.253" y="348.417" width="96.5776" height="20.1967" fill="black" fill-opacity="0.14"/>
</svg>