<svg xmlns="http://www.w3.org/2000/svg" viewBox="0 0 303.73 233.24"><defs><style>.cls-1{fill:#e4433d;}.cls-2{fill:#f7ba07;}.cls-3{fill:#3aa755;}.cls-4{fill:#4888f0;}.cls-5{fill:#efad0a;}.cls-6{fill:#d33535;}.cls-7{fill:#359b4b;}</style></defs><g id="Layer_2" data-name="Layer 2"><g id="Layer_1-2" data-name="Layer 1"><path class="cls-1" d="M122.37,85.89v29.29c2,0,4,0,6.07-.09,4.11-.16,8.13-.09,12.13-.07V85.89a29.5,29.5,0,0,0-59,0v86.8a9.11,9.11,0,1,0,18.21,0V85.89a11.29,11.29,0,0,1,22.58,0Z"/><path class="cls-2" d="M172.26,125.39a9.11,9.11,0,0,1-9.11-9.11v36.39a11.29,11.29,0,0,1-22.58,0V141a9.1,9.1,0,0,1-18.2,0v11.7a29.5,29.5,0,0,0,59,0V116.29A9.1,9.1,0,0,1,172.26,125.39Z"/><polygon class="cls-1" points="122.36 115.18 122.36 140.97 122.37 140.97 122.37 115.18 122.36 115.18"/><path class="cls-1" d="M131.47,150.07a9.1,9.1,0,0,0,9.1-9.1V115c-4,0-8-.09-12.13.07-2,.07-4,.12-6.07.09V141A9.09,9.09,0,0,0,131.47,150.07Z"/><path class="cls-1" d="M90.68,180.28a9.1,9.1,0,0,1-9.1-9.11v32.57a11.29,11.29,0,1,1-22.58,0v-8.51a9.11,9.11,0,0,1-18.21,0v8.51a29.5,29.5,0,0,0,59,0V171.17A9.11,9.11,0,0,1,90.68,180.28Z"/><path class="cls-3" d="M59,29.5a29.5,29.5,0,0,0-59,0v87.12a9.11,9.11,0,0,0,18.21,0V29.5a11.29,11.29,0,0,1,22.58,0V163.39H59Z"/><polygon class="cls-1" points="40.79 163.4 40.79 195.23 40.79 195.23 40.79 163.4 40.79 163.4"/><path class="cls-3" d="M49.89,204.33a9.1,9.1,0,0,0,9.11-9.1V163.39H40.79v31.84A9.1,9.1,0,0,0,49.89,204.33Z"/><path class="cls-4" d="M274.23,73.05a29.51,29.51,0,0,0-29.5,29.5v14a9.11,9.11,0,0,0,18.21,0v-14a11.29,11.29,0,1,1,22.58,0v14a9.11,9.11,0,0,0,18.21,0v-14A29.54,29.54,0,0,0,274.23,73.05Z"/><path class="cls-2" d="M213,100.62a9.11,9.11,0,0,0,9.11-9.1l0-30a29.44,29.44,0,0,0-1.9-10.4,29.53,29.53,0,0,0-16.31,25.29V92.35A9.1,9.1,0,0,0,213,100.62Z"/><path class="cls-2" d="M220.25,51.14A29.69,29.69,0,0,0,204.4,34.49a29.49,29.49,0,0,0-41.25,27.05v54.74a9.11,9.11,0,0,0,18.21,0h0V61.54a11.29,11.29,0,1,1,22.58,0V76.43A29.53,29.53,0,0,1,220.25,51.14Z"/><path class="cls-4" d="M253.84,125.63a9.1,9.1,0,0,1-9.11-9.1v54.35a11.29,11.29,0,0,1-22.58,0l0-79.36a9.1,9.1,0,0,1-18.17.83v78.53a29.5,29.5,0,0,0,59,0V116.53A9.1,9.1,0,0,1,253.84,125.63Z"/><path class="cls-5" d="M213.05,99.39a9.1,9.1,0,0,1-9.11-9.1v11.78a14.81,14.81,0,0,0,18.21,0V90.29A9.09,9.09,0,0,1,213.05,99.39Z"/><path class="cls-6" d="M131.47,147.59a9.09,9.09,0,0,1-9.1-9.1v11.78a14.79,14.79,0,0,0,18.2,0V138.49A9.09,9.09,0,0,1,131.47,147.59Z"/><path class="cls-7" d="M49.89,197.69a9.09,9.09,0,0,1-9.1-9.1v12.82a15.66,15.66,0,0,0,18.21,0V188.59A9.1,9.1,0,0,1,49.89,197.69Z"/></g></g></svg>