<svg class="illustration" width="1155" height="700" viewBox="0 0 1155 700" fill="none" xmlns="http://www.w3.org/2000/svg">
<path fill-rule="evenodd" clip-rule="evenodd" d="M915.834 540.208C920.567 524.817 923.058 508.854 923.058 492.487C923.058 366.438 775.325 264.254 593.087 264.254C410.849 264.254 263.116 366.438 263.116 492.487C263.116 508.854 265.606 524.817 270.339 540.208H915.834Z" fill="#F1F0EC"/>
<path fill-rule="evenodd" clip-rule="evenodd" d="M741.128 343.993L709.019 351.656L698.257 321.1C695.421 323.564 686.088 326.047 680.187 327.428C679.822 329.35 679.632 331.333 679.632 333.361C679.632 350.848 693.808 365.024 711.295 365.024C725.052 365.024 736.759 356.25 741.128 343.993Z" fill="#E4B69D"/>
<path fill-rule="evenodd" clip-rule="evenodd" d="M422.6 278.729L440.304 288.424L451.953 279.464C455.342 283.701 463.187 289.961 471.574 287.596C471.853 290.678 471.753 293.844 471.235 297.039C467.906 317.555 448.576 331.487 428.061 328.158C426.765 327.947 425.496 327.673 424.256 327.339L416.485 343.452L416.366 343.449C414.027 343.404 411.291 343.351 409.129 341.601C408.041 340.72 406.997 339.275 405.94 337.814C405.114 336.671 404.281 335.517 403.413 334.616L410.354 320.223C403.88 314.953 399.276 307.619 397.394 299.404C398.626 299.614 400.134 299.692 401.678 299.771C404.315 299.906 407.054 300.046 408.686 300.862C404.843 284.771 410.049 276.826 422.6 278.729Z" fill="#DFB28B"/>
<path fill-rule="evenodd" clip-rule="evenodd" d="M790.552 202.787C797.624 190.927 801.686 177.065 801.686 162.254C801.686 118.484 766.203 83 722.432 83C678.661 83 643.177 118.484 643.177 162.254C643.177 206.026 678.661 241.509 722.432 241.509C733.031 241.509 743.144 239.428 752.386 235.653V209.287V202.787H758.886H790.552V202.787ZM722.45 126.432L736.706 112.176C733.404 108.874 729.058 106.819 724.411 106.361C719.763 105.903 715.101 107.071 711.218 109.666C707.335 112.26 704.471 116.121 703.116 120.59C702.723 121.884 702.464 123.206 702.337 124.536L722.387 126.468L722.45 126.432Z" fill="#FAE4B0" fill-opacity="0.5"/>
<path d="M492.376 252.119L497.768 215.271L520.959 221.455L492.376 252.119Z" stroke="#DF0045"/>
<path d="M228.617 540.209H954.593" stroke="#00A8A6" stroke-linecap="round"/>
<path d="M228.617 542.631H954.593" stroke="#00A8A6" stroke-linecap="round"/>
<path fill-rule="evenodd" clip-rule="evenodd" d="M659.83 503.436L659.83 586.26C659.83 586.26 655.822 590.946 648.385 587.181L637.778 503.436C635.804 494.359 652.99 497.648 659.83 503.436Z" fill="#CEA28B"/>
<path fill-rule="evenodd" clip-rule="evenodd" d="M670.29 601.46C674.238 602.012 675.804 599.877 675.804 599.877L676.945 533.601L655.213 525.564L665.08 596.134L664.487 599.817L670.29 601.46Z" fill="#E4B69D"/>
<path d="M523.701 577.975L521.031 562.783H530.697L535.716 577.975C550.355 580.093 572.203 587.731 574.411 590.604C577.174 594.195 524.73 595.038 522.723 591.861C519.371 586.552 521.031 577.975 523.701 577.975Z" fill="#17B0AE"/>
<path d="M520.827 596.957L518.156 581.764H527.823L532.841 596.957C547.481 599.074 569.328 606.713 571.537 609.585C574.3 613.176 521.855 614.019 519.849 610.843C516.496 605.534 518.156 596.957 520.827 596.957Z" fill="#26B5B3"/>
<path fill-rule="evenodd" clip-rule="evenodd" d="M510.719 478.488L517.002 576.984C517.002 576.984 539.968 574.396 539.877 575.961L542.394 465.369C543.268 450.367 530.03 438.411 515.194 440.802L418.479 456.391C407.302 458.193 399.701 468.716 401.503 479.893C403.303 491.071 413.825 498.671 425.003 496.87L510.719 478.488Z" fill="#E42963"/>
<path d="M311.423 192.184C325.224 192.184 336.412 180.996 336.412 167.195C336.412 153.395 325.224 142.207 311.423 142.207C297.622 142.207 286.434 153.395 286.434 167.195C286.434 180.996 297.622 192.184 311.423 192.184Z" fill="#FAE4B0" fill-opacity="0.5"/>
<path d="M653.693 303.937L648.301 267.088L625.11 273.272L653.693 303.937Z" stroke="#DF0045"/>
<path d="M647.785 238.229H546.26C535.729 238.229 527.192 246.766 527.192 257.298C527.192 267.829 535.729 276.366 546.26 276.366H647.785C658.317 276.366 666.854 267.829 666.854 257.298C666.854 246.766 658.317 238.229 647.785 238.229Z" fill="#00A8A6"/>
<path d="M543.117 586.76L550.607 573.342" stroke="#E42B65" stroke-width="3" stroke-linecap="round"/>
<path d="M539.47 582.147L554.254 577.955" stroke="#E42B65" stroke-width="3" stroke-linecap="round"/>
<path d="M240.482 462.604H303.634V513.207C303.634 519.282 298.709 540.207 292.634 540.207H251.482C245.407 540.207 240.482 519.282 240.482 513.207V462.604Z" fill="white" fill-opacity="0.37"/>
<path d="M659.919 595.878C659.919 595.878 662.373 583.67 659.919 583.67C659.919 583.67 655.549 587.418 653.393 587.418C651.238 587.418 648.215 585.484 648.215 585.484C634.765 587.429 623.395 592.513 621.365 595.153C618.827 598.452 659.919 595.878 659.919 595.878Z" fill="#E53068"/>
<path d="M513.353 442.01C506.088 434.173 490.537 434.639 484.341 436.102C482.898 438.699 481.356 445.238 481.357 448.613C481.359 452.832 498.123 456.59 500.835 456.59C504.485 456.59 507.654 460.726 518.166 459.183C519.589 456.724 520.618 449.847 513.353 442.01Z" fill="#CEA28B"/>
<path d="M433.969 360.583C430.942 351.988 421.521 347.473 412.925 350.5C404.33 353.526 399.815 362.948 402.842 371.543L433.969 360.583ZM442.137 433.461L426.573 438.941L429.512 447.287L438.09 449.457L442.137 433.461ZM402.842 371.543L426.573 438.941L457.7 427.981L433.969 360.583L402.842 371.543ZM438.09 449.457L491.327 462.927L499.422 430.935L446.184 417.465L438.09 449.457Z" fill="#FAE28B"/>
<path d="M579.969 479.021C582.98 479.021 585.421 481.462 585.421 484.473V591.484C585.421 594.495 582.98 596.937 579.969 596.937C576.958 596.937 574.517 594.495 574.517 591.484V484.473C574.517 481.462 576.958 479.021 579.969 479.021Z" fill="#FFEFB3"/>
<path d="M574.517 487.473C574.517 484.462 576.957 482.021 579.968 482.021C582.979 482.021 585.42 484.462 585.42 487.473V489.952H574.517V487.473Z" fill="black" fill-opacity="0.4"/>
<path d="M665.105 479.022C665.105 483.208 627.007 486.603 580.01 486.603C533.012 486.603 494.914 483.208 494.914 479.022C494.914 477.893 492.217 470.761 497.183 469.798C510.638 467.19 545.683 471.441 580.01 471.441C614.336 471.441 649.218 467.293 662.673 469.901C667.639 470.863 665.105 477.893 665.105 479.022Z" fill="#26B5B3"/>
<path d="M580.009 479.019C627.006 479.019 665.105 475.625 665.105 471.438C665.105 467.251 627.006 463.857 580.009 463.857C533.012 463.857 494.913 467.251 494.913 471.438C494.913 475.625 533.012 479.019 580.009 479.019Z" fill="#FFEFB5"/>
<path d="M557.728 591.928H602.21C604.92 591.928 607.117 594.125 607.117 596.835C607.117 599.544 604.92 601.741 602.21 601.741H557.728C555.018 601.741 552.822 599.544 552.822 596.835C552.822 594.125 555.018 591.928 557.728 591.928Z" fill="#FFEFB5"/>
<path d="M498.062 465.44L545.8 468.102L571.208 415.096" stroke="white" stroke-width="9" stroke-linecap="round"/>
<path d="M657.342 467.048H611.459L602.698 411.01" stroke="white" stroke-width="9" stroke-linecap="round"/>
<path fill-rule="evenodd" clip-rule="evenodd" d="M442.213 407.213C444.41 430.095 449.782 446.548 454.308 453.164L387.459 498.903C371.202 475.142 364.184 442.034 361.584 414.953C360.374 402.348 361.776 384.717 367.716 370.777C376.124 351.046 391.274 336.785 413.429 344.866L427.372 355.349C438.17 369.235 440.078 384.968 442.213 407.213Z" fill="#FFEEB0"/>
<path d="M513.245 446.092C505.98 438.255 490.429 438.721 484.233 440.185C482.79 442.781 481.248 449.32 481.249 452.695C481.251 456.914 498.016 460.672 500.728 460.672C504.377 460.672 507.546 464.808 518.058 463.265C519.481 460.806 520.51 453.929 513.245 446.092Z" fill="#DFB28B"/>
<path fill-rule="evenodd" clip-rule="evenodd" d="M738.036 139.255C740.997 135.645 742.617 131.12 742.617 126.449H722.432L736.705 112.176C733.403 108.874 729.058 106.819 724.409 106.361C719.763 105.903 715.099 107.071 711.216 109.666C707.334 112.26 704.471 116.121 703.115 120.59C701.76 125.059 701.996 129.86 703.783 134.174C705.57 138.489 708.797 142.05 712.916 144.252C717.034 146.453 721.789 147.158 726.37 146.247C730.95 145.336 735.073 142.865 738.036 139.255ZM599.808 186.412H498.283C487.752 186.412 479.215 194.949 479.215 205.48C479.215 216.011 487.752 224.549 498.283 224.549H599.808C610.34 224.549 618.877 216.011 618.877 205.48C618.877 194.949 610.34 186.412 599.808 186.412ZM387.61 498.796L387.674 500.979C390.149 500.74 399.279 501.338 409.928 502.04C414.25 502.326 419.032 502.092 424.018 501.849H424.019C430.701 501.523 437.751 501.179 444.553 502.04C449.327 502.645 454.791 502.888 460.438 503.14C470.82 503.602 481.817 504.091 490.258 506.906L514.886 594.743L538.32 590.048C534.312 564.152 524.611 506.906 514.886 480.299C510.096 475.257 503.612 472.719 500.188 471.477C495.79 469.881 490.705 468.52 485.513 467.346C475.054 464.981 462.303 462.961 449.706 461.365C447.619 461.101 445.524 460.847 443.432 460.603L387.61 498.796ZM549.042 593.052C549.446 592.329 549.187 591.415 548.464 591.011C547.74 590.607 546.827 590.866 546.423 591.59L542.98 597.756L536.186 599.682C535.389 599.908 534.926 600.737 535.152 601.534C535.378 602.331 536.208 602.794 537.005 602.568L540.912 601.461L538.933 605.007C538.529 605.73 538.788 606.644 539.511 607.048C540.235 607.452 541.148 607.192 541.552 606.469L544.994 600.304L551.789 598.377C552.586 598.152 553.049 597.322 552.823 596.525C552.597 595.728 551.767 595.265 550.97 595.491L547.062 596.599L549.042 593.052ZM642.986 578.711C643.709 578.308 644.623 578.567 645.026 579.29L648.164 584.911L654.359 586.667C655.156 586.893 655.619 587.723 655.393 588.52C655.167 589.317 654.337 589.78 653.54 589.554L650.232 588.616L651.908 591.618C652.312 592.341 652.053 593.255 651.33 593.659C650.606 594.063 649.693 593.804 649.289 593.08L646.151 587.459L639.956 585.703C639.159 585.477 638.696 584.647 638.922 583.85C639.148 583.053 639.978 582.59 640.775 582.816L644.083 583.754L642.407 580.752C642.003 580.029 642.262 579.115 642.986 578.711ZM928.12 212.166H760.4V419.389C762.46 416.908 765.912 415.825 769.145 416.93C773.326 418.359 775.556 422.907 774.127 427.088C766.318 449.931 763.493 470.269 762.618 484.853C762.181 492.14 762.232 497.973 762.387 501.942C762.465 503.926 762.569 505.441 762.65 506.438C762.691 506.936 762.726 507.304 762.749 507.535C762.756 507.6 762.762 507.654 762.766 507.697C762.77 507.731 762.773 507.759 762.775 507.779L762.779 507.814L762.78 507.821V507.823V507.825L763.857 516.77H760.4V530.833H928.12V212.166V212.166ZM773.499 259.275H915.019V255.275H773.499V259.275ZM915.019 340.638H773.499V336.638H915.019V340.638V340.638ZM773.5 345.123H915.02V341.123H773.5V345.123ZM773.502 451.963H915.023V447.963H773.502V451.963ZM915.019 300.138H843.894V296.138H915.019V300.138ZM773.501 383.752H915.021V379.752H773.501V383.752ZM915.022 447.482H773.502V443.482H915.022V447.482ZM773.503 513.416H915.024V509.416H773.503V513.416ZM713.155 520.291C714.134 519.011 715.123 517.832 716.121 516.771H718.858C717.482 518.068 716.092 519.644 714.696 521.469C710.124 527.445 705.606 535.93 701.385 545.496C692.947 564.616 685.78 587.849 681.763 603.412L679.885 602.927C683.918 587.304 691.116 563.963 699.61 544.713C703.855 535.095 708.445 526.447 713.155 520.291ZM740.647 523.003C738.935 520.523 737.2 518.423 735.465 516.771H738.185C739.566 518.262 740.921 519.986 742.243 521.901C746.673 528.318 750.818 536.991 754.389 546.502C761.528 565.518 766.454 588.099 766.734 603.152L764.795 603.188C764.52 588.418 759.66 566.061 752.573 547.184C749.031 537.75 744.952 529.239 740.647 523.003ZM414.503 517.697C414.091 517.158 413.677 516.637 413.262 516.134H410.626C411.387 516.985 412.15 517.912 412.915 518.912C417.629 525.074 422.287 533.824 426.641 543.689C435.341 563.405 442.732 587.362 446.875 603.41L448.811 602.911C444.653 586.8 437.23 562.73 428.47 542.881C424.093 532.963 419.36 524.045 414.503 517.697ZM384.508 519.357C385.297 518.214 386.098 517.137 386.908 516.134H389.522C388.394 517.419 387.269 518.879 386.154 520.494C381.715 526.924 377.508 535.7 373.856 545.429C366.548 564.894 361.536 587.949 361.253 603.179L359.253 603.142C359.542 587.619 364.621 564.334 371.983 544.726C375.666 534.918 379.94 525.974 384.508 519.357ZM240.482 462.603H303.634V513.206C303.634 519.281 298.709 540.206 292.634 540.206H251.482C245.407 540.206 240.482 519.281 240.482 513.206V462.603ZM415.497 369.204C412.47 360.609 403.049 356.094 394.453 359.121C385.858 362.147 381.343 371.569 384.37 380.164L408.101 447.562L411.657 457.661L422.329 458.528L487.976 463.859L490.648 430.967L435.672 426.502L415.497 369.204Z" fill="#ffffff"/>
<path d="M415.543 369.239C412.516 360.644 403.095 356.129 394.499 359.156C385.904 362.182 381.389 371.604 384.416 380.199L415.543 369.239ZM423.711 442.117L408.147 447.597L411.703 457.696L422.375 458.563L423.711 442.117ZM384.416 380.199L408.147 447.597L439.274 436.637L415.543 369.239L384.416 380.199ZM422.375 458.563L488.022 463.894L490.694 431.002L425.046 425.671L422.375 458.563Z" fill="white" fill-opacity="0.22"/>
<path d="M391.541 345.197C391.541 345.197 395.504 334.54 399.323 333.088C403.141 331.636 405.951 339.027 409.129 341.601C412.308 344.174 416.73 343.078 419.303 343.684C421.361 344.168 420.16 351.363 419.303 353.987L414.005 358.215L399.323 357.458L391.541 345.197Z" fill="#FFEEB0"/>
<path d="M219.408 338.103C181.777 254.395 232.464 205.244 305.421 224.444C347.077 235.406 417.544 209.986 417.544 174.526C417.544 135.59 478.685 130.918 484.06 130.15" stroke="#00A8A6" stroke-dasharray="4 4"/>
<path d="M505.312 124.201L492.537 108.787L556.534 117.573L493.756 152.622L505.312 124.201Z" fill="#FAE3AD"/>
<path d="M496.368 131.735L506.01 124.11L555.141 117.752L496.368 131.735Z" fill="#00A8A6"/>
<path fill-rule="evenodd" clip-rule="evenodd" d="M769.199 416.954C773.38 418.384 775.61 422.932 774.181 427.112C766.372 449.956 763.547 470.293 762.672 484.877C762.235 492.164 762.286 497.998 762.441 501.966C762.519 503.95 762.623 505.466 762.704 506.462C762.745 506.96 762.78 507.328 762.803 507.56C762.815 507.676 762.824 507.757 762.829 507.804L762.833 507.838L762.834 507.845V507.847V507.849L763.911 516.794H688.198C683.78 516.794 680.198 513.213 680.198 508.794C680.198 504.376 683.78 500.794 688.198 500.794H746.394C746.275 496.498 746.289 490.78 746.701 483.919C747.644 468.195 750.679 446.397 759.042 421.936C760.471 417.756 765.019 415.525 769.199 416.954Z" fill="black" fill-opacity="0.16"/>
<path fill-rule="evenodd" clip-rule="evenodd" d="M720.208 465.573H726.729L727.802 461.572L747.458 462.771C747.458 462.771 747.899 463.942 748.516 465.904C747.584 472.521 747.021 478.571 746.701 483.918C746.289 490.779 746.275 496.497 746.394 500.793H688.198C683.78 500.793 680.198 504.375 680.198 508.793C680.198 510.803 680.94 512.64 682.164 514.045C681.696 516.712 682.164 520.173 682.707 524.198C683.191 527.778 683.735 531.803 683.735 536.113L631.149 516.666C631.149 516.666 630.668 494.102 635.47 485.941C640.271 477.78 659.645 465.366 683.735 469.857C690.366 471.093 693.669 467.758 695.288 463.634L720.208 465.573Z" fill="#FFF1BD"/>
<path fill-rule="evenodd" clip-rule="evenodd" d="M670.29 601.461L671.571 602.77C672.15 603.362 672.14 604.312 671.548 604.891C670.956 605.471 670.006 605.46 669.427 604.868L664.487 599.819L660.639 599.777C649.042 605.445 638.815 612.516 640.594 615.105C643.48 619.305 679.153 608.157 679.153 608.157C679.153 608.157 678.374 597.486 675.988 597.111L674.944 599.067C674.944 599.067 674.238 602.012 670.29 601.461Z" fill="#26B5B3"/>
<path fill-rule="evenodd" clip-rule="evenodd" d="M716.998 364.511C721.09 363.766 724.909 362.235 728.29 360.08L729.908 371.711C729.63 374.471 728.357 375.133 726.457 376.121L726.297 376.204C722.992 377.925 717.895 375.235 717.895 375.235L716.998 364.511Z" fill="#CEA28B"/>
<path fill-rule="evenodd" clip-rule="evenodd" d="M720.029 424.939L713.621 448.825L658.137 450.937C653.504 448.512 643.259 445.343 636.667 449.135C629.667 453.163 627.999 462.464 627.999 462.464C627.999 462.464 636.8 462.699 642.432 462.464C644.358 462.384 646.523 462.513 648.622 462.638H648.623C653.288 462.916 657.625 463.174 658.279 461.074C658.31 460.975 658.34 460.871 658.369 460.763L720.208 465.574H726.729L728.418 459.276L736.878 427.738L720.029 424.939Z" fill="#E4B69D"/>
<path fill-rule="evenodd" clip-rule="evenodd" d="M782.289 230.6H792.459V254.049H782.289V230.6ZM782.289 279.604H792.459V335.415H782.289V279.604ZM795.148 279.604H805.318V335.415H795.148V279.604ZM818.177 298.135H808.007V335.414H818.177V298.135V298.135ZM820.865 298.135H831.035V335.414H820.865V298.135ZM843.893 311.967H833.723V335.416H843.893V311.967ZM805.318 230.6H795.148V254.049H805.318V230.6ZM808.007 230.6H818.177V254.049H808.007V230.6ZM831.035 230.6H820.865V254.049H831.035V230.6ZM833.723 230.6H843.893V254.049H833.723V230.6ZM898.936 271.104H888.766V294.552H898.936V271.104ZM902.52 271.104H912.69V294.552H902.52V271.104ZM896.011 352.471H888.765V378.17H896.011V352.471ZM898.701 352.471H905.947V378.17H898.701V352.471ZM882.492 398.085H875.246V441.899H882.492V398.085ZM885.18 398.085H892.427V441.899H885.18V398.085ZM902.361 398.085H895.115V441.899H902.361V398.085ZM905.049 398.085H912.295V441.899H905.049V398.085ZM902.245 482.042H898.01V507.74H902.245V482.042ZM904.367 482.042H908.602V507.74H904.367V482.042ZM889.531 482.042H885.296V507.74H889.531V482.042ZM891.653 482.042H895.888V507.74H891.653V482.042ZM876.819 482.042H872.583V507.74H876.819V482.042ZM878.939 482.042H883.175V507.74H878.939V482.042ZM864.103 482.042H859.867V507.74H864.103V482.042ZM866.224 482.042H870.46V507.74H866.224V482.042ZM851.389 482.042H847.154V507.74H851.389V482.042ZM853.511 482.042H857.746V507.74H853.511V482.042ZM838.675 482.042H834.44V507.74H838.675V482.042ZM840.797 482.042H845.032V507.74H840.797V482.042ZM825.961 482.042H821.725V507.74H825.961V482.042ZM828.083 482.042H832.319V507.74H828.083V482.042Z" fill="black" fill-opacity="0.25"/>
<path d="M789.698 100.689C793.789 100.689 797.106 97.3726 797.106 93.2812C797.106 89.1898 793.789 85.873 789.698 85.873C785.606 85.873 782.289 89.1898 782.289 93.2812C782.289 97.3726 785.606 100.689 789.698 100.689Z" fill="#FDF2D8"/>
<path fill-rule="evenodd" clip-rule="evenodd" d="M736.706 112.176L722.45 126.432L722.387 126.468L702.337 124.536C702.464 123.206 702.723 121.884 703.116 120.59C704.471 116.121 707.335 112.26 711.218 109.666C715.101 107.071 719.763 105.903 724.411 106.361C729.058 106.819 733.404 108.874 736.706 112.176ZM752.386 202.787H758.886H929.635H936.135V209.287V533.708V540.208H929.635H758.886H752.386V533.708V516.77H688.144C683.726 516.77 680.144 513.188 680.144 508.77C680.144 504.352 683.726 500.77 688.144 500.77H746.34C746.221 496.474 746.235 490.756 746.647 483.895C747.282 473.306 748.865 459.964 752.386 444.909V209.287V202.787ZM760.4 530.833V516.77H763.857L762.78 507.825V507.823V507.821L762.779 507.814L762.775 507.779L762.767 507.705C762.762 507.66 762.756 507.604 762.749 507.535C762.734 507.385 762.714 507.177 762.691 506.913L762.685 506.845L762.677 506.753C762.668 506.654 762.659 506.549 762.65 506.438C762.569 505.441 762.465 503.926 762.387 501.942C762.232 497.973 762.181 492.14 762.618 484.853C763.493 470.269 766.318 449.931 774.127 427.088C775.556 422.907 773.326 418.359 769.145 416.93C765.912 415.825 762.46 416.908 760.4 419.389V212.166H928.12V530.833H760.4ZM915.019 259.275H773.499V255.275H915.019V259.275V259.275ZM773.499 340.638H915.019V336.638H773.499V340.638ZM915.02 345.123H773.5V341.123H915.02V345.123ZM915.023 451.963H773.502V447.963H915.023V451.963V451.963ZM843.894 300.138H915.019V296.138H843.894V300.138ZM915.021 383.752H773.501V379.752H915.021V383.752V383.752ZM773.502 447.482H915.022V443.482H773.502V447.482ZM915.024 513.416H773.503V509.416H915.024V513.416V513.416ZM247.647 462.603H283.989C312.437 432.836 345.646 390.491 337.122 349.664C323.748 285.613 323.748 256.754 337.122 228.599C331.97 233.861 326.634 239.049 321.349 244.187C292.938 271.808 266.017 297.98 277.293 326.437C288.503 354.729 279.939 370.538 270.402 388.142C265.595 397.016 260.541 406.346 257.648 417.961C255.453 411.253 254.868 404.137 258.454 395.087C262.858 383.972 253.621 375.768 241.851 365.315L241.85 365.314L241.849 365.313L241.848 365.312C237.972 361.87 233.821 358.183 229.793 354.068C235.163 365.374 232.369 377.766 227.588 398.964L227.588 398.965C226.475 403.903 225.254 409.318 224.003 415.309C220.469 432.235 234.006 449.107 247.647 462.603ZM362.093 419.827C364.014 436.79 367.693 455.666 374.233 472.939C374.625 476.611 374.903 480.06 375.095 483.258C375.507 490.119 375.52 495.837 375.402 500.133H433.598C438.017 500.133 441.598 503.715 441.598 508.133C441.598 512.551 438.017 516.133 433.598 516.133H357.884L358.961 507.188L358.962 507.186V507.184L358.963 507.177L358.967 507.143C358.97 507.114 358.974 507.072 358.98 507.016L358.992 506.899C359.016 506.667 359.051 506.299 359.092 505.801C359.173 504.805 359.277 503.289 359.354 501.305C359.51 497.336 359.561 491.503 359.124 484.216C358.249 469.631 355.424 449.294 347.615 426.451C346.185 422.27 348.416 417.723 352.596 416.293C356.264 415.039 360.214 416.602 362.093 419.827ZM426.84 291.824C426.83 292.176 426.536 292.453 426.184 292.443C425.832 292.433 425.555 292.139 425.565 291.787C425.637 289.294 425.223 285.883 423.841 283.615C422.14 280.823 419.19 280.844 416.465 282.15C413.992 283.335 412.605 285.008 411.945 286.82C411.279 288.647 411.334 290.671 411.852 292.563C412.37 294.456 413.342 296.173 414.452 297.365C415.587 298.585 416.74 299.132 417.626 299.011C418.714 298.863 419.524 298.472 420.099 297.941C420.673 297.409 421.046 296.708 421.211 295.883C421.544 294.217 421.023 292.051 419.585 289.994C419.383 289.705 419.454 289.308 419.742 289.106C420.031 288.904 420.428 288.975 420.63 289.263C422.206 291.518 422.881 294.033 422.461 296.133C422.25 297.19 421.758 298.143 420.964 298.877C420.17 299.611 419.106 300.096 417.799 300.274C416.29 300.48 414.75 299.557 413.518 298.233C412.26 296.881 411.192 294.979 410.622 292.9C410.052 290.818 409.97 288.516 410.747 286.384C411.707 283.979 415.095 279.467 420.964 280.659C426.833 281.852 427.327 288.599 426.84 291.824ZM466.632 296.66C466.412 296.935 466.01 296.98 465.735 296.76C463.889 295.283 460.976 295.224 457.893 295.894C454.85 296.556 451.846 297.884 450.018 298.904L449.396 297.791C451.306 296.725 454.428 295.342 457.622 294.648C460.775 293.963 464.206 293.904 466.532 295.764C466.807 295.984 466.851 296.385 466.632 296.66ZM457.64 304.817C459.293 302.944 460.186 301.032 459.636 300.546C459.085 300.06 457.299 301.184 455.646 303.056C453.993 304.929 453.099 306.841 453.65 307.327C454.201 307.813 455.987 306.689 457.64 304.817ZM441.671 320.27C441.547 319.94 441.179 319.773 440.85 319.897C440.52 320.02 440.353 320.388 440.477 320.718C441.113 322.416 442.649 324.708 445.216 326.144C447.81 327.596 451.39 328.135 456.012 326.412C456.342 326.289 456.51 325.922 456.387 325.592C456.264 325.262 455.897 325.094 455.567 325.217C451.259 326.823 448.073 326.282 445.839 325.032C443.576 323.766 442.219 321.733 441.671 320.27ZM682.58 332.633C684.435 331.634 687.037 332.135 689.616 333.283C689.887 333.403 690.204 333.281 690.325 333.011C690.445 332.74 690.323 332.423 690.053 332.302C687.433 331.137 684.402 330.433 682.071 331.688C681.81 331.829 681.713 332.154 681.853 332.415C681.994 332.676 682.319 332.773 682.58 332.633ZM687.954 343.55C688.552 343.393 688.603 341.618 688.069 339.586C687.535 337.553 686.617 336.033 686.019 336.19C685.421 336.347 685.37 338.122 685.904 340.155C686.438 342.187 687.356 343.707 687.954 343.55ZM700.254 354.402C700.406 354.148 700.323 353.818 700.069 353.666C699.815 353.514 699.485 353.597 699.333 353.851C698.658 354.979 697.228 356.456 695.164 357.162C693.125 357.859 690.407 357.825 687.084 355.844C686.83 355.692 686.5 355.775 686.349 356.03C686.197 356.284 686.28 356.614 686.535 356.765C690.099 358.891 693.144 358.987 695.511 358.177C697.852 357.377 699.471 355.711 700.254 354.402Z" fill="#4485f3"/>
<path fill-rule="evenodd" clip-rule="evenodd" d="M717.646 372.266C709.553 374.998 704.581 383.685 703.022 388.447C702.583 389.787 702.144 391.1 701.707 392.403L701.705 392.411C698.182 402.935 694.844 412.908 693.338 432.697C692.76 440.28 693.52 445.694 694.794 449.543L713.621 448.826L720.028 424.94L736.878 427.74L728.418 459.278L726.729 465.576H720.208L711.315 464.884C719.454 469.608 731.277 474.729 739.751 470.992C741.143 470.378 742.417 469.857 743.584 469.379C745.411 468.632 746.977 467.992 748.328 467.267C749.989 454.948 752.929 440.579 757.998 425.057C757.971 417.064 757.105 408.81 754.261 400.396C748.938 384.651 739.171 375.584 729.778 372.563C729.338 374.625 728.145 375.245 726.457 376.122L726.296 376.206C722.992 377.927 717.895 375.237 717.895 375.237L717.646 372.266Z" fill="#00A8A6"/>
<path d="M736.078 383.265C727.088 381.771 718.59 387.848 717.097 396.838L712.633 423.712L745.187 429.12L749.651 402.245C751.144 393.256 745.067 384.758 736.078 383.265Z" fill="#E42963"/>
<path fill-rule="evenodd" clip-rule="evenodd" d="M803.551 107.559C802.608 106.271 800.799 105.993 799.511 106.936C798.223 107.88 797.944 109.689 798.888 110.977C827.158 149.556 818.8 203.748 780.221 232.018C778.933 232.961 778.654 234.77 779.598 236.058C780.541 237.346 782.35 237.625 783.638 236.681C824.793 206.524 833.709 148.714 803.551 107.559ZM690.382 170.793C690.382 173.014 688.581 174.814 686.361 174.814C684.14 174.814 682.339 173.014 682.339 170.793C682.339 168.572 684.14 166.771 686.361 166.771C688.581 166.771 690.382 168.572 690.382 170.793ZM695.352 167.131H750.635C750.99 167.131 751.278 167.418 751.278 167.773V174.019C751.278 174.373 750.99 174.661 750.635 174.661H695.352C694.997 174.661 694.71 174.373 694.71 174.019V167.773C694.71 167.418 694.997 167.131 695.352 167.131ZM695.352 181.521H764.247C764.602 181.521 764.89 181.809 764.89 182.164V188.409C764.89 188.764 764.602 189.052 764.247 189.052H695.352C694.997 189.052 694.71 188.764 694.71 188.409V182.164C694.71 181.809 694.997 181.521 695.352 181.521ZM686.36 189.467C688.581 189.467 690.381 187.666 690.381 185.445C690.381 183.224 688.581 181.424 686.36 181.424C684.139 181.424 682.338 183.224 682.338 185.445C682.338 187.666 684.139 189.467 686.36 189.467Z" fill="#FAE3AD"/>
<path fill-rule="evenodd" clip-rule="evenodd" d="M738.036 139.255C740.999 135.645 742.618 131.119 742.618 126.449H722.432L722.467 126.414L722.32 126.44L725.355 146.422C725.695 146.372 726.033 146.314 726.37 146.247C730.951 145.336 735.073 142.865 738.036 139.255Z" fill="#24B4B2"/>
<path fill-rule="evenodd" clip-rule="evenodd" d="M724.313 362.232C722.008 363.273 719.557 364.046 716.998 364.511L717.325 368.429C719.768 366.898 723.766 364.036 724.313 362.232Z" fill="#B08874"/>
<path d="M736.887 427.762L720.016 424.932L735.372 433.18L736.887 427.762Z" fill="black" fill-opacity="0.2"/>
<path fill-rule="evenodd" clip-rule="evenodd" d="M202.965 140.267L202 139.42L202.138 140.696C208.623 200.69 224.014 253.734 238.665 304.229C240.925 312.018 243.167 319.747 245.356 327.431C258.314 372.908 269.417 416.83 271.376 462.603H272.377C270.417 416.682 259.282 372.654 246.318 327.157C244.127 319.466 241.883 311.733 239.623 303.942C225.076 253.803 209.827 201.245 203.272 141.87C257.134 189.511 282.883 243.379 290.793 302.907C297.359 352.328 291.631 405.666 279.453 462.603H280.476C292.636 405.686 298.363 352.291 291.784 302.775C283.796 242.658 257.672 188.28 202.965 140.267Z" fill="#00A8A6"/>
<path d="M240.482 210.889C266.21 257.769 282.455 306.464 276.873 400.493" stroke="#00A8A6"/>
<path d="M488.506 457.728L489.979 439.447C491.298 446.032 493.786 459.203 493.186 459.203C492.585 459.203 489.816 458.22 488.506 457.728Z" fill="black" fill-opacity="0.1"/>
<path fill-rule="evenodd" clip-rule="evenodd" d="M422.6 278.73L440.304 288.425L451.953 279.465C456.134 284.692 467.096 292.996 477.491 284.393C490.484 273.641 425.966 236.454 420.59 255.719C413.219 247.242 403.423 254.59 402.174 262.651C402.097 262.632 402.058 262.623 402.058 262.623C402.058 262.623 389.04 286.781 394.665 298.058C395.358 299.448 398.441 299.606 401.678 299.772C404.315 299.907 407.054 300.047 408.686 300.863C404.843 284.772 410.049 276.827 422.6 278.73Z" fill="#383838"/>
<path fill-rule="evenodd" clip-rule="evenodd" d="M749.195 342.068L709.019 351.656L698.257 321.1C694.005 324.794 675.148 328.532 675.148 328.532C675.148 328.532 673.646 321.269 679.479 311.493C694.755 285.89 730.158 293.452 730.784 300.279C739.758 293.106 753.572 334.897 749.195 342.068Z" fill="#212121"/>
<path d="M415.151 321.66C416.915 323.94 421.98 326.41 424.293 327.36L421.712 332.845C419.044 331.899 416.226 324.994 415.151 321.66Z" fill="#CEA28B"/>
<path fill-rule="evenodd" clip-rule="evenodd" d="M715.542 373.137C708.692 376.527 704.442 384.117 703.022 388.447C702.582 389.787 702.142 391.107 701.702 392.407C699.942 397.667 698.232 402.797 696.762 409.077C696.602 409.787 696.432 410.507 696.272 411.247L696.182 411.217L696.192 411.197L691.032 409.227L700.712 383.767C703.142 377.377 709.112 373.377 715.542 373.137Z" fill="#E42963"/>
<path fill-rule="evenodd" clip-rule="evenodd" d="M694.552 448.776L693.022 449.166L690.972 449.686L658.132 450.936C653.502 448.516 643.262 445.346 636.662 449.136C631.232 452.266 629.012 458.576 628.292 461.236C628.022 461.186 627.872 461.156 627.872 461.156C627.872 461.156 625.622 454.436 631.732 449.156C637.832 443.896 649.442 445.536 653.992 447.146L683.472 437.236L683.302 437.146L696.182 411.216L696.272 411.246C695.032 417.076 694.012 423.916 693.342 432.696C692.802 439.786 693.432 444.976 694.552 448.776Z" fill="#CEA28B"/>
<path d="M672.833 598.413L657.467 598.244" stroke="#F3C045" stroke-width="3" stroke-miterlimit="10" stroke-linecap="round"/>
<path d="M670.523 603.821L659.777 592.836" stroke="#F3C045" stroke-width="3" stroke-miterlimit="10" stroke-linecap="round"/>
</svg>