<svg xmlns="http://www.w3.org/2000/svg" viewBox="0 0 303.73 233.24"><defs><style>.cls-1{fill:#e4433d;}.cls-2{fill:#3aa755;}.cls-3{fill:#f7ba07;}.cls-4{fill:#4888f0;}.cls-5{fill:#efad0a;}.cls-6{fill:#d33535;}.cls-7{fill:#359b4b;}</style></defs><g id="Layer_2" data-name="Layer 2"><g id="Layer_1-2" data-name="Layer 1"><polygon class="cls-1" points="122.36 115.18 122.36 140.97 122.37 140.97 122.37 115.18 122.36 115.18"/><path class="cls-1" d="M122.82,58.84A29.49,29.49,0,0,0,81.58,85.89V203.74a11.29,11.29,0,1,1-22.58,0v-8.51a9.11,9.11,0,0,1-18.21,0v8.51a29.5,29.5,0,0,0,59,0V85.89a11.29,11.29,0,0,1,22.58,0V141a9.1,9.1,0,0,0,18.2,0V85.89A29.53,29.53,0,0,0,122.82,58.84Z"/><polygon class="cls-1" points="40.79 163.4 40.79 195.23 40.79 195.23 40.79 163.4 40.79 163.4"/><path class="cls-2" d="M59,29.5A29.56,29.56,0,0,0,28.54,0C12.52.53,0,14.11,0,30.14v86.12a9.34,9.34,0,0,0,8.54,9.45,9.11,9.11,0,0,0,9.67-9.09V29.87A11.53,11.53,0,0,1,28.45,18.26,11.3,11.3,0,0,1,40.79,29.5V163.35a0,0,0,0,0,.05,0h-.05v31.84a9.11,9.11,0,0,0,18.21,0V163.39h0a0,0,0,0,0,0,0Z"/><path class="cls-3" d="M220.25,51.14A29.69,29.69,0,0,0,204.4,34.49a29.49,29.49,0,0,0-41.25,27.05v91.13a11.29,11.29,0,0,1-22.58,0V141a9.1,9.1,0,0,1-18.2,0v11.7a29.5,29.5,0,0,0,59,0V116.29h0V61.54a11.29,11.29,0,1,1,22.58,0V92.35a9.1,9.1,0,0,0,18.17-.83l0-30A29.44,29.44,0,0,0,220.25,51.14Z"/><path class="cls-4" d="M274.23,73.05a29.51,29.51,0,0,0-29.5,29.5v14h0v54.35a11.29,11.29,0,0,1-22.58,0l0-79.36a9.1,9.1,0,0,1-18.17.83v78.53a29.5,29.5,0,0,0,59,0V116.53a9.11,9.11,0,0,1-17.8,2.71,9.11,9.11,0,0,0,17.8-2.71v-14a11.29,11.29,0,1,1,22.58,0v14a9.11,9.11,0,0,0,18.21,0v-14A29.54,29.54,0,0,0,274.23,73.05Zm-29.31,45.31a.3.3,0,0,0,0,.1A.3.3,0,0,1,244.92,118.36Z"/><path class="cls-5" d="M213.05,99.39a9.1,9.1,0,0,1-9.11-9.1v11.78a14.81,14.81,0,0,0,18.21,0V90.29A9.09,9.09,0,0,1,213.05,99.39Z"/><path class="cls-6" d="M131.47,147.59a9.09,9.09,0,0,1-9.1-9.1v11.78a14.79,14.79,0,0,0,18.2,0V138.49A9.09,9.09,0,0,1,131.47,147.59Z"/><path class="cls-7" d="M49.89,197.69a9.09,9.09,0,0,1-9.1-9.1v12.82a15.66,15.66,0,0,0,18.21,0V188.59A9.1,9.1,0,0,1,49.89,197.69Z"/></g></g></svg>