<?xml version="1.0" standalone="no"?>
<!DOCTYPE svg PUBLIC "-//W3C//DTD SVG 20010904//EN"
 "http://www.w3.org/TR/2001/REC-SVG-20010904/DTD/svg10.dtd">
<svg version="1.0" xmlns="http://www.w3.org/2000/svg"
 width="260.000000pt" height="260.000000pt" viewBox="0 0 260.000000 260.000000"
 preserveAspectRatio="xMidYMid meet">
<metadata>
Created by potrace 1.11, written by Peter Selinger 2001-2013
</metadata>
<g transform="translate(0.000000,260.000000) scale(0.100000,-0.100000)"
fill="#000000" stroke="none">
<path d="M194 2264 c-50 -18 -106 -69 -136 -126 -23 -43 -23 -47 -26 -454 l-3
-410 26 -28 c20 -22 31 -26 57 -22 17 3 41 14 52 25 20 21 21 31 21 409 1 213
4 397 8 409 13 35 57 58 109 54 20 -1 68 -46 69 -64 0 -7 2 -358 3 -782 1
-689 3 -774 18 -807 57 -127 208 -183 334 -124 59 27 116 90 132 145 9 27 12
194 12 562 0 502 1 525 20 556 35 58 125 54 157 -8 8 -16 12 -114 13 -328 0
-334 1 -343 24 -385 96 -183 354 -182 446 0 l24 49 1 425 c1 303 4 431 13 446
15 28 69 53 101 47 26 -4 70 -46 72 -67 1 -6 2 -234 3 -506 2 -494 2 -495 25
-542 26 -54 77 -103 130 -126 42 -18 124 -22 166 -9 87 29 162 116 172 199 2
24 5 176 5 338 0 319 4 341 54 360 43 17 71 11 103 -19 30 -28 31 -31 31 -119
0 -101 13 -128 65 -138 22 -4 38 0 58 16 26 21 27 24 27 128 -1 150 -34 218
-131 267 -124 64 -273 15 -334 -110 l-28 -56 -1 -327 c-1 -296 -3 -331 -19
-355 -9 -15 -18 -27 -20 -28 -1 0 -21 -2 -44 -5 -38 -5 -46 -2 -73 24 l-30 30
-1 489 c0 268 -2 496 -4 505 -25 130 -142 218 -270 204 -85 -9 -152 -54 -196
-131 l-24 -40 -2 -434 c-2 -411 -3 -436 -21 -460 -28 -37 -71 -47 -115 -26
-19 9 -39 24 -43 33 -4 9 -8 161 -10 338 -2 305 -3 324 -23 370 -74 166 -303
199 -416 59 -59 -73 -59 -71 -59 -652 l-1 -533 -27 -26 c-15 -15 -39 -28 -54
-30 -33 -4 -80 19 -94 47 -8 14 -12 257 -13 797 -2 738 -3 779 -21 815 -24 49
-82 106 -126 125 -48 20 -136 23 -186 6z"/>
</g>
</svg>
