<svg xmlns="http://www.w3.org/2000/svg" viewBox="0 0 565.45 328.53"><defs><style>.cls-1{fill:#333;}.cls-2{fill:#e4433d;}.cls-3{fill:#f7ba07;}.cls-4{fill:#3aa755;}.cls-5{fill:#4888f0;}.cls-6{fill:#efad0a;}.cls-7{fill:#d33535;}.cls-8{fill:#359b4b;}</style></defs><g id="Layer_2" data-name="Layer 2"><g id="Layer_1-2" data-name="Layer 1"><path class="cls-1" d="M0,308.35a4.85,4.85,0,0,1,.41-1.93L22.49,256.7q1.52-3.28,3.77-3.28c1.51,0,2.76,1.09,3.77,3.28l22.09,49.72a4.85,4.85,0,0,1,.41,1.93,4.36,4.36,0,0,1-1.36,3.22,4.44,4.44,0,0,1-3.23,1.34,4.58,4.58,0,0,1-2.56-.77,4.34,4.34,0,0,1-1.66-2l-6.27-14.11H15.12L8.81,310.18a4.15,4.15,0,0,1-1.66,2,4.58,4.58,0,0,1-2.52.75,4.53,4.53,0,0,1-3.26-1.34A4.37,4.37,0,0,1,0,308.35Zm18.15-20.43H34.42l-8.16-18.64Z"/><path class="cls-1" d="M59.61,303.28a3.89,3.89,0,0,1,1.2-2.84,4.37,4.37,0,0,1,6.44.44,10.28,10.28,0,0,0,3.86,3.2,12.42,12.42,0,0,0,5.13,1,9.17,9.17,0,0,0,5.21-1.43,4.12,4.12,0,0,0,2.13-3.49,4.54,4.54,0,0,0-1.18-3.25,8.86,8.86,0,0,0-3.94-2.08l-6.06-1.68q-6.27-1.71-9.18-4.63a10.55,10.55,0,0,1-2.91-7.81,10.19,10.19,0,0,1,2.3-6.48,14.55,14.55,0,0,1,5.81-4.4,18.58,18.58,0,0,1,7.42-1.51,22,22,0,0,1,8.24,1.27,15.69,15.69,0,0,1,5.5,3.94,4.33,4.33,0,0,1,1.18,2.91,4.11,4.11,0,0,1-1.28,3,4.25,4.25,0,0,1-3.08,1.27,4.31,4.31,0,0,1-3.35-1.57,8.86,8.86,0,0,0-7-2.9,7.31,7.31,0,0,0-4.51,1.32,3.9,3.9,0,0,0-1.76,3.2q0,3.5,4.58,4.75l6.07,1.68a37.87,37.87,0,0,1,5,1.72,17.57,17.57,0,0,1,3.9,2.36,9.23,9.23,0,0,1,2.8,3.67,13.06,13.06,0,0,1,.94,5.18,10.24,10.24,0,0,1-1.52,5.41,12.67,12.67,0,0,1-4,4.09,20.78,20.78,0,0,1-5.49,2.49A21.63,21.63,0,0,1,76,313a22.28,22.28,0,0,1-8.64-1.63A15.64,15.64,0,0,1,61.13,307,5.51,5.51,0,0,1,59.61,303.28Z"/><path class="cls-1" d="M99.77,303.28a3.88,3.88,0,0,1,1.19-2.84,4.37,4.37,0,0,1,6.44.44,10.36,10.36,0,0,0,3.86,3.2,12.42,12.42,0,0,0,5.13,1,9.17,9.17,0,0,0,5.21-1.43,4.11,4.11,0,0,0,2.14-3.49,4.55,4.55,0,0,0-1.19-3.25,8.76,8.76,0,0,0-3.93-2.08l-6.07-1.68q-6.27-1.71-9.18-4.63a10.55,10.55,0,0,1-2.91-7.81,10.19,10.19,0,0,1,2.3-6.48,14.58,14.58,0,0,1,5.82-4.4,18.57,18.57,0,0,1,7.41-1.51,22,22,0,0,1,8.24,1.27,15.6,15.6,0,0,1,5.5,3.94,4.34,4.34,0,0,1,1.19,2.91,4.12,4.12,0,0,1-1.29,3,4.24,4.24,0,0,1-3.08,1.27,4.31,4.31,0,0,1-3.35-1.57,8.86,8.86,0,0,0-7-2.9,7.33,7.33,0,0,0-4.51,1.32,3.93,3.93,0,0,0-1.76,3.2q0,3.5,4.59,4.75l6.06,1.68a37.87,37.87,0,0,1,5,1.72,17.35,17.35,0,0,1,3.9,2.36,9.14,9.14,0,0,1,2.8,3.67,13.06,13.06,0,0,1,.94,5.18,10.23,10.23,0,0,1-1.51,5.41,12.7,12.7,0,0,1-4,4.09,20.78,20.78,0,0,1-5.49,2.49,21.62,21.62,0,0,1-6.12.88,22.29,22.29,0,0,1-8.65-1.63,15.71,15.71,0,0,1-6.19-4.39A5.5,5.5,0,0,1,99.77,303.28Z"/><path class="cls-1" d="M143.42,261.33a4.62,4.62,0,0,1,0-6.72,4.75,4.75,0,0,1,6.81,0,4.62,4.62,0,0,1,0,6.72,4.77,4.77,0,0,1-6.81,0Zm-1.37,46.91v-35a4.52,4.52,0,0,1,1.41-3.32,4.61,4.61,0,0,1,3.36-1.39,4.75,4.75,0,0,1,4.74,4.71v35a4.5,4.5,0,0,1-1.39,3.3,4.61,4.61,0,0,1-3.35,1.37,4.67,4.67,0,0,1-3.36-1.37A4.44,4.44,0,0,1,142.05,308.24Z"/><path class="cls-1" d="M160.2,303.28a3.92,3.92,0,0,1,1.19-2.84,4.38,4.38,0,0,1,6.45.44,10.34,10.34,0,0,0,3.85,3.2,12.49,12.49,0,0,0,5.13,1,9.2,9.2,0,0,0,5.22-1.43,4.12,4.12,0,0,0,2.13-3.49,4.51,4.51,0,0,0-1.19-3.25,8.76,8.76,0,0,0-3.93-2.08L173,293.12q-6.27-1.71-9.18-4.63a10.55,10.55,0,0,1-2.91-7.81,10.18,10.18,0,0,1,2.29-6.48,14.58,14.58,0,0,1,5.82-4.4,18.58,18.58,0,0,1,7.42-1.51,22,22,0,0,1,8.24,1.27,15.69,15.69,0,0,1,5.5,3.94,4.33,4.33,0,0,1,1.18,2.91,4.14,4.14,0,0,1-1.28,3,4.36,4.36,0,0,1-6.43-.3,8.87,8.87,0,0,0-7-2.9,7.28,7.28,0,0,0-4.5,1.32,3.91,3.91,0,0,0-1.77,3.2q0,3.5,4.59,4.75l6.06,1.68a38.06,38.06,0,0,1,5,1.72,17.57,17.57,0,0,1,3.9,2.36,9.23,9.23,0,0,1,2.8,3.67,13.23,13.23,0,0,1,.94,5.18,10.24,10.24,0,0,1-1.52,5.41,12.67,12.67,0,0,1-4,4.09,21.08,21.08,0,0,1-5.49,2.49,21.63,21.63,0,0,1-6.13.88,22.28,22.28,0,0,1-8.64-1.63,15.57,15.57,0,0,1-6.19-4.39A5.51,5.51,0,0,1,160.2,303.28Z"/><path class="cls-1" d="M198.64,272.7a3.69,3.69,0,0,1,1.2-2.75,4,4,0,0,1,2.85-1.17H205v-3.45a4.7,4.7,0,0,1,4.63-4.66,4.37,4.37,0,0,1,3.23,1.38,4.53,4.53,0,0,1,1.36,3.28v3.45h5.65a4,4,0,0,1,2.83,1.15,3.7,3.7,0,0,1,1.19,2.77,4,4,0,0,1-4,4h-5.65v24.79c0,2.4.92,3.61,2.78,3.61a20.34,20.34,0,0,0,3.12-.25,3.75,3.75,0,0,1,.45,0,3.66,3.66,0,0,1,2.25.94,3.84,3.84,0,0,1-1,6.31,16.16,16.16,0,0,1-6.31,1,14.83,14.83,0,0,1-4-.5,9.28,9.28,0,0,1-3.28-1.7,7.54,7.54,0,0,1-2.35-3.61,18.4,18.4,0,0,1-.82-5.93V276.73h-2.34a4,4,0,0,1-2.85-1.18A3.86,3.86,0,0,1,198.64,272.7Z"/><path class="cls-1" d="M229.36,290.62a24.23,24.23,0,0,1,1.91-9.75,19.68,19.68,0,0,1,4.94-7.05,22.91,22.91,0,0,1,6.59-4.09,19,19,0,0,1,7.13-1.44,17.18,17.18,0,0,1,8.16,1.77,13.08,13.08,0,0,1,5,4.34v-1.52a4.37,4.37,0,0,1,1.38-3.23,4.44,4.44,0,0,1,3.25-1.36,4.63,4.63,0,0,1,4.59,4.59v35.44a4.61,4.61,0,0,1-4.59,4.59,4.47,4.47,0,0,1-3.25-1.35,4.37,4.37,0,0,1-1.38-3.24v-2.95c-.16,1.86-1.55,3.6-4.15,5.21a16.79,16.79,0,0,1-9,2.41,20,20,0,0,1-5.67-.84,19.61,19.61,0,0,1-5.55-2.66,21.24,21.24,0,0,1-4.78-4.4,20.38,20.38,0,0,1-3.32-6.33A25.67,25.67,0,0,1,229.36,290.62Zm9.22,0a16.68,16.68,0,0,0,1.13,6.23,12.82,12.82,0,0,0,2.93,4.57,13.09,13.09,0,0,0,4,2.68,11.2,11.2,0,0,0,4.45.95,12.26,12.26,0,0,0,8.5-3.34,11.59,11.59,0,0,0,2.85-4.53,20.86,20.86,0,0,0,0-13.13,11.5,11.5,0,0,0-2.87-4.51,12.29,12.29,0,0,0-3.93-2.48,12.71,12.71,0,0,0-4.55-.82,11.36,11.36,0,0,0-4.45.94,12.77,12.77,0,0,0-6.92,7.28A16.39,16.39,0,0,0,238.58,290.62Z"/><path class="cls-1" d="M282.38,308.24V273.17a4.7,4.7,0,0,1,4.63-4.63,4.4,4.4,0,0,1,3.24,1.37,4.5,4.5,0,0,1,1.35,3.26v4.92a7.39,7.39,0,0,1,1.13-2.79,17,17,0,0,1,2.6-3.16,13.17,13.17,0,0,1,4.34-2.68,15.7,15.7,0,0,1,5.86-1.08,20.17,20.17,0,0,1,6.78,1.1,16.83,16.83,0,0,1,5.64,3.34,15.16,15.16,0,0,1,3.93,6,24.29,24.29,0,0,1,1.43,8.69v20.73a4.61,4.61,0,0,1-4.58,4.59,4.48,4.48,0,0,1-3.26-1.35,4.36,4.36,0,0,1-1.37-3.24V288q0-6.06-2.61-8.87a9.26,9.26,0,0,0-7.15-2.81,11,11,0,0,0-5.08,1.25,12.73,12.73,0,0,0-3.95,3.08,20.75,20.75,0,0,0-2.5,3.6,11.29,11.29,0,0,0-1.21,3.1v20.89a4.61,4.61,0,0,1-4.59,4.59,4.47,4.47,0,0,1-3.25-1.35A4.37,4.37,0,0,1,282.38,308.24Z"/><path class="cls-1" d="M329.5,272.7a3.67,3.67,0,0,1,1.21-2.75,4,4,0,0,1,2.85-1.17h2.33v-3.45a4.47,4.47,0,0,1,1.38-3.28,4.43,4.43,0,0,1,3.25-1.38,4.37,4.37,0,0,1,3.24,1.38,4.52,4.52,0,0,1,1.35,3.28v3.45h5.66a3.94,3.94,0,0,1,2.82,1.15,3.7,3.7,0,0,1,1.19,2.77,3.89,3.89,0,0,1-1.19,2.85,3.85,3.85,0,0,1-2.82,1.18h-5.66v24.79c0,2.4.93,3.61,2.79,3.61a20.21,20.21,0,0,0,3.11-.25,4.14,4.14,0,0,1,.45,0,3.68,3.68,0,0,1,2.26.94,3.85,3.85,0,0,1-1,6.31,16.09,16.09,0,0,1-6.31,1,14.75,14.75,0,0,1-4-.5,9.12,9.12,0,0,1-3.28-1.7,7.56,7.56,0,0,1-2.36-3.61,18.68,18.68,0,0,1-.82-5.93V276.73h-2.33a3.93,3.93,0,0,1-2.85-1.18A3.83,3.83,0,0,1,329.5,272.7Z"/><path class="cls-1" d="M401.83,309.23a2.34,2.34,0,0,1,.42,1.34,2.06,2.06,0,0,1-2,2.1,2.15,2.15,0,0,1-1.59-.84l-18-22.4H367.84v21.06a2.14,2.14,0,0,1-2.09,2.18,2.17,2.17,0,0,1-2.19-2.18V256a2.17,2.17,0,0,1,2.27-2.27h15.36c13.09,0,21.14,7.13,21.14,17.71,0,10.15-6.38,16.53-17,17.79Zm-34-23.58h13.51c10.83,0,16.79-4.86,16.79-14.26,0-8.56-6-13.93-16.79-13.93H367.84Z"/><path class="cls-1" d="M452.43,289.76a2.43,2.43,0,0,1-2.6,2.61H415c.67,11.49,9.48,16.86,16.7,16.86a17.41,17.41,0,0,0,12.42-5,2,2,0,0,1,3.27,1.43,1.82,1.82,0,0,1-.59,1.42A21.41,21.41,0,0,1,431.7,313c-9.4,0-21-7.39-21-22.41s11.58-22.32,21-22.32A21,21,0,0,1,452.43,289.76ZM415,288.59h33.31c-.83-11.24-9.48-16.53-16.61-16.53S415.84,277.35,415,288.59Z"/><path class="cls-1" d="M466.35,255.61v55.13a2.14,2.14,0,0,1-2.09,2.18,2.17,2.17,0,0,1-2.19-2.18V255.61a2.17,2.17,0,0,1,2.19-2.18A2.15,2.15,0,0,1,466.35,255.61Z"/><path class="cls-1" d="M513.6,278.44v-7.81a2.1,2.1,0,0,1,4.19,0v40.11a2.1,2.1,0,1,1-4.19,0v-8.05c-3.28,7.05-10.07,10.32-16.79,10.32-9.39,0-20.81-7.39-20.81-22.41s11.5-22.32,20.81-22.32C503.53,268.28,510.32,271.56,513.6,278.44ZM480.2,290.6c0,12.76,9.4,18.63,16.87,18.63s16.69-6.12,16.69-18.63c0-12.83-9.23-18.54-16.69-18.54S480.2,277.93,480.2,290.6Z"/><path class="cls-1" d="M563.44,268.62a2,2,0,0,1,2,1.93,2,2,0,0,1-.16.75l-23.16,56.06a2,2,0,0,1-1.85,1.17,1.94,1.94,0,0,1-1.93-1.84,2.82,2.82,0,0,1,.25-1l5.88-14.6L526.77,271.3a2,2,0,0,1-.17-.75,2,2,0,0,1,2-1.93,1.94,1.94,0,0,1,1.76,1.17L546.49,306l15.1-36.25A2,2,0,0,1,563.44,268.62Z"/><path class="cls-2" d="M253.23,85.89v29.29c2,0,4,0,6.08-.09,4.1-.16,8.12-.09,12.13-.07V85.89a29.5,29.5,0,0,0-59,0v86.8a9.11,9.11,0,1,0,18.21,0V85.89a11.29,11.29,0,1,1,22.58,0Z"/><path class="cls-3" d="M303.12,125.39a9.1,9.1,0,0,1-9.1-9.11v36.39a11.29,11.29,0,1,1-22.58,0V141a9.11,9.11,0,0,1-18.21,0v11.7a29.5,29.5,0,0,0,59,0V116.29A9.11,9.11,0,0,1,303.12,125.39Z"/><polygon class="cls-2" points="253.23 115.18 253.23 140.97 253.23 140.97 253.23 115.18 253.23 115.18"/><path class="cls-2" d="M262.33,150.07a9.11,9.11,0,0,0,9.11-9.1V115c-4,0-8-.09-12.13.07-2,.07-4.06.12-6.08.09V141A9.1,9.1,0,0,0,262.33,150.07Z"/><path class="cls-2" d="M221.54,180.28a9.11,9.11,0,0,1-9.1-9.11v32.57a11.29,11.29,0,0,1-22.58,0v-8.51a9.11,9.11,0,0,1-18.21,0v8.51a29.5,29.5,0,0,0,59,0V171.17A9.11,9.11,0,0,1,221.54,180.28Z"/><path class="cls-4" d="M189.86,29.5a29.5,29.5,0,0,0-59,0v87.12a9.11,9.11,0,0,0,18.21,0V29.5a11.29,11.29,0,1,1,22.58,0V163.39h18.21Z"/><polygon class="cls-2" points="171.65 163.4 171.65 195.23 171.65 195.23 171.65 163.4 171.65 163.4"/><path class="cls-4" d="M180.76,204.33a9.1,9.1,0,0,0,9.1-9.1V163.39H171.65v31.84A9.1,9.1,0,0,0,180.76,204.33Z"/><path class="cls-5" d="M405.09,73.05a29.51,29.51,0,0,0-29.5,29.5v14a9.11,9.11,0,0,0,18.21,0v-14a11.29,11.29,0,0,1,22.58,0v14a9.11,9.11,0,0,0,18.21,0v-14A29.53,29.53,0,0,0,405.09,73.05Z"/><path class="cls-3" d="M343.87,100.62a9.1,9.1,0,0,0,9.1-9.1l0-30a29.44,29.44,0,0,0-1.9-10.4,29.52,29.52,0,0,0-16.3,25.29V92.35A9.09,9.09,0,0,0,343.87,100.62Z"/><path class="cls-3" d="M351.11,51.14a29.66,29.66,0,0,0-15.85-16.65A29.49,29.49,0,0,0,294,61.54v54.74a9.11,9.11,0,1,0,18.21,0h0V61.54a11.29,11.29,0,0,1,22.58,0V76.43A29.52,29.52,0,0,1,351.11,51.14Z"/><path class="cls-5" d="M384.7,125.63a9.1,9.1,0,0,1-9.11-9.1v54.35a11.29,11.29,0,0,1-22.58,0l0-79.36a9.1,9.1,0,0,1-18.16.83v78.53a29.5,29.5,0,0,0,59,0V116.53A9.09,9.09,0,0,1,384.7,125.63Z"/><path class="cls-6" d="M343.91,99.39a9.09,9.09,0,0,1-9.1-9.1v11.78a14.79,14.79,0,0,0,18.2,0V90.29A9.09,9.09,0,0,1,343.91,99.39Z"/><path class="cls-7" d="M262.33,147.59a9.09,9.09,0,0,1-9.1-9.1v11.78a14.81,14.81,0,0,0,18.21,0V138.49A9.11,9.11,0,0,1,262.33,147.59Z"/><path class="cls-8" d="M180.76,197.69a9.1,9.1,0,0,1-9.11-9.1v12.82a15.66,15.66,0,0,0,18.21,0V188.59A9.1,9.1,0,0,1,180.76,197.69Z"/></g></g></svg>