<svg xmlns="http://www.w3.org/2000/svg" viewBox="0 0 310 310"><defs><style>.cls-1{fill:#fefefe;}.cls-2{fill:#34a851;}.cls-3{fill:#f7ba07;}.cls-4{fill:#e64136;}.cls-5{fill:#4485f3;}</style></defs><title>Asset 1</title><g id="Layer_2" data-name="Layer 2"><g id="Layer_1-2" data-name="Layer 1"><path class="cls-1" d="M155,309.94q-76.21,0-152.44.06C.41,310,0,309.59,0,307.44Q.11,155,0,2.56C0,.41.41,0,2.56,0Q155,.11,307.44,0c2.15,0,2.56.41,2.56,2.56Q309.9,155,310,307.44c0,2.15-.41,2.56-2.56,2.56Q231.23,309.88,155,309.94ZM46.11,155.37h0q0-3.5,0-7c0-21.3.08-42.6-.12-63.91-.08-9.88-7.33-18.15-17.44-20.11A20.8,20.8,0,0,0,5.52,76,30.87,30.87,0,0,0,3,89q.08,66.92,0,133.82c0,1.16-.05,2.33,0,3.49C4.53,243.42,21.16,251,33.6,245.1c8.29-3.92,12.46-10.69,12.49-19.82C46.16,202,46.11,178.68,46.11,155.37Zm130.8-.18h0v43.93c0,.33,0,.67,0,1-.23,4.8,1.35,9.08,3.72,13.17,6.33,10.88,24.3,13.38,33.64,2.21,4.06-4.84,5.6-10.44,5.61-16.52q.1-43.42,0-86.86a32.79,32.79,0,0,0-1-7.83c-2.32-9.08-9.49-15-19.94-15.66-7.7-.47-15.24,2.5-19.82,12a23.81,23.81,0,0,0-2.2,10.59C177,125.9,176.91,140.54,176.91,155.19ZM133,156.69h.06c0-10,0-20,0-30a20.24,20.24,0,0,0-9-16.92,21.16,21.16,0,0,0-15.34-4.16C97.62,107,89.92,117.86,89.93,128q0,29,0,57.93A20.07,20.07,0,0,0,93,196.76c4.55,7.37,11.34,11.58,19.88,10.84,13.18-1.14,20.26-11.72,20.14-22.44C132.91,175.67,133,166.18,133,156.69Zm173.91-3.34a53.13,53.13,0,0,0,0-6.06c-1.08-9.41-5.67-16.73-14.58-20.12-11.27-4.3-23.1,1.63-27.25,13-2.78,7.62-2.29,15.46-1.26,23.43,1.24,9.51,10.67,19.25,22,18.59,7.85-.46,16.94-5.52,19.28-14.33A46.32,46.32,0,0,0,306.9,153.35Z"/><path class="cls-2" d="M46.11,155.37c0,23.31,0,46.61,0,69.91,0,9.13-4.2,15.9-12.49,19.82C21.16,251,4.53,243.42,3.1,226.31c-.09-1.16,0-2.33,0-3.49Q3.06,155.91,3,89A30.87,30.87,0,0,1,5.52,76a20.8,20.8,0,0,1,23.06-11.6c10.11,2,17.36,10.23,17.44,20.11.2,21.31.1,42.61.12,63.91q0,3.5,0,7Z"/><path class="cls-3" d="M176.91,155.19c0-14.65.05-29.29,0-43.93a23.81,23.81,0,0,1,2.2-10.59c4.58-9.54,12.12-12.51,19.82-12,10.45.65,17.62,6.58,19.94,15.66a32.79,32.79,0,0,1,1,7.83q.1,43.42,0,86.86c0,6.08-1.55,11.68-5.61,16.52-9.34,11.17-27.31,8.67-33.64-2.21-2.37-4.09-3.95-8.37-3.72-13.17,0-.33,0-.67,0-1V155.19Z"/><path class="cls-4" d="M133,156.69c0,9.49-.08,19,0,28.47.12,10.72-7,21.3-20.14,22.44-8.54.74-15.33-3.47-19.88-10.84a20.07,20.07,0,0,1-3.09-10.83q.07-29,0-57.93c0-10.14,7.69-21,18.78-22.35a21.16,21.16,0,0,1,15.34,4.16,20.24,20.24,0,0,1,9,16.92c.07,10,0,20,0,30Z"/><path class="cls-5" d="M306.9,153.35a46.32,46.32,0,0,1-1.81,14.55c-2.34,8.81-11.43,13.87-19.28,14.33-11.36.66-20.79-9.08-22-18.59-1-8-1.52-15.81,1.26-23.43,4.15-11.41,16-17.34,27.25-13,8.91,3.39,13.5,10.71,14.58,20.12A53.13,53.13,0,0,1,306.9,153.35Z"/></g></g></svg>